# xmcd
#
# Track frame offsets:
#	150
#	23550
#	28050
#	65550
#	104250
#	123000
#	154237
#	170775
#	200725
#	222762
#	260825
#	281987
#	319925
#
# Disc length: 4476 seconds
#
# Revision: 1
# Processed by: cddbd v1.5.1PL0 Copyright (c) Steve Scherf et al.
# Submitted via: CDex 1.50Beta5
#
DISCID=c7117a0d
DTITLE=エニックス - CDシアタードラゴンクエスト
DYEAR=1900
DGENRE=Other
TTITLE0=アレフガルド
TTITLE1=序曲
TTITLE2=ラダトーム城
TTITLE3=ガライ
TTITLE4=マイラ
TTITLE5=ロトの印
TTITLE6=メルキド
TTITLE7=ドムドーラ
TTITLE8=洞窟
TTITLE9=リムルダール
TTITLE10=魔王の城
TTITLE11=竜王
TTITLE12=フィナーレ
EXTD=
EXTT0=
EXTT1=
EXTT2=
EXTT3=
EXTT4=
EXTT5=
EXTT6=
EXTT7=
EXTT8=
EXTT9=
EXTT10=
EXTT11=
EXTT12=
PLAYORDER=
